<svg width="69" height="73" viewBox="0 0 69 73" fill="none" xmlns="http://www.w3.org/2000/svg">
<path d="M18.0889 33.4854L22.773 38.0926C23.1399 38.4533 23.6182 38.6443 24.1096 38.6443C24.3304 38.6443 24.5538 38.6057 24.7711 38.5267C25.4719 38.2716 25.9514 37.6521 26.0225 36.9099L26.6493 30.37C26.6532 30.3285 26.675 30.2905 26.7088 30.2659C31.0129 27.1207 33.5826 22.0648 33.5826 16.7412C33.5826 12.2255 31.8118 7.99219 28.5961 4.82111C25.3811 1.6506 21.1293 -0.0609085 16.6035 0.00196847C12.2412 0.0627067 8.1267 1.80829 5.01764 4.91735C1.90858 8.02641 0.162997 12.1411 0.102259 16.5032C0.0393818 21.0218 1.75089 25.2808 4.9214 28.4958C8.09248 31.7113 12.3259 33.4822 16.8415 33.4822C17.2199 33.4822 17.6027 33.4693 17.9791 33.4441C18.0202 33.4415 18.0593 33.4562 18.0889 33.4854V33.4854ZM16.8416 31.3432C12.9028 31.3432 9.21029 29.7985 6.44413 26.9937C3.67869 24.1895 2.1859 20.4743 2.24079 16.5326C2.29354 12.7303 3.81699 9.14222 6.52982 6.42925C9.2428 3.71627 12.8309 2.19311 16.6332 2.14007C20.5721 2.08703 24.2901 3.57797 27.0943 6.34356C29.8991 9.10957 31.4438 12.8021 31.4438 16.7409C31.4438 21.3845 29.2019 25.7949 25.4467 28.539C24.9201 28.9239 24.5824 29.5168 24.5202 30.1658L23.938 36.2389L19.5883 31.9607C19.1598 31.5394 18.5835 31.3048 17.9877 31.3048C17.9372 31.3048 17.8865 31.3066 17.8357 31.31C17.5071 31.3319 17.1724 31.3432 16.8416 31.3432V31.3432Z" fill="black"/>
<path d="M68.7393 55.0426L63.4739 25.5628C63.0611 23.2553 61.0606 21.5806 58.7171 21.5806H55.3782C54.8204 20.6189 54.058 19.791 53.15 19.1564L54.4268 15.6502C54.7692 14.7091 54.2818 13.6644 53.34 13.3215L51.5157 12.6574L53.5245 7.13801C53.8673 6.19671 53.3829 5.15717 52.4412 4.81441L48.5617 3.40246C47.6201 3.05985 46.5808 3.54433 46.2382 4.48591L44.2293 10.0051L42.4043 9.34084C41.4641 8.99866 40.4207 9.48499 40.0768 10.4261L32.0296 32.5346C31.6874 33.476 32.1743 34.5206 33.1152 34.8632L33.36 34.9523L32.4242 37.5231C32.2524 37.9955 32.2747 38.5063 32.487 38.9619C32.6994 39.4174 33.0765 39.763 33.5488 39.9348L40.4589 42.4499C40.6691 42.5263 40.8867 42.5644 41.1037 42.5644C41.3746 42.5644 41.6448 42.5051 41.8977 42.3872C42.3532 42.1747 42.6987 41.7976 42.8707 41.3254L43.8068 38.7533L44.0506 38.842C44.2537 38.9161 44.464 38.953 44.6738 38.953C45.3986 38.953 46.1059 38.5088 46.3791 37.7572L48.1426 32.9146C51.2296 33.1895 54.0696 31.5796 55.4848 28.9714C55.7412 29.1132 55.9153 29.386 55.9153 29.6992V37.9302C55.9153 38.5207 56.3939 38.9995 56.9846 38.9995C57.5753 38.9995 58.0539 38.5207 58.0539 37.9302V29.699C58.0539 28.4668 57.2993 27.4079 56.2281 26.9589C56.338 26.4459 56.3973 25.9146 56.3973 25.3692C56.3973 24.8024 56.3327 24.2508 56.2143 23.7193H58.7169C60.0232 23.7193 61.1385 24.6529 61.3686 25.9391L66.634 55.4185C67.053 57.7657 66.4157 60.1604 64.8849 61.9888C63.354 63.8172 61.1085 64.866 58.7242 64.866C57.6737 64.866 32.2062 64.8658 31.1566 64.8658V56.2121C31.5963 56.2121 49.1287 56.2117 53.1564 56.2117C55.857 56.2117 58.0541 54.0147 58.0541 51.3141V42.9206C58.0541 42.33 57.5755 41.8512 56.9848 41.8512C56.394 41.8512 55.9154 42.33 55.9154 42.9206V51.3141C55.9154 52.8355 54.6777 54.073 53.1564 54.073H51.174V50.2669C51.174 49.2841 50.3745 48.4847 49.3918 48.4847H26.2947C25.3119 48.4847 24.5124 49.2841 24.5124 50.2669V54.43C24.5124 55.4128 25.3119 56.2123 26.2947 56.2123H29.0181V64.8659H19.4399C18.4572 64.8659 17.6577 65.6653 17.6577 66.6481V71.2178C17.6577 72.2006 18.4572 73 19.4399 73H27.592C28.1827 73 28.6613 72.5212 28.6613 71.9307C28.6613 71.3401 28.1827 70.8613 27.592 70.8613H19.7964V67.0043C23.3355 67.0043 52.7192 67.0046 55.89 67.0046V70.8613H32.5822C31.9915 70.8613 31.5129 71.3401 31.5129 71.9307C31.5129 72.5212 31.9915 73 32.5822 73H56.2466C57.2294 73 58.0288 72.2006 58.0288 71.2178V67.0046H58.7243C61.7433 67.0046 64.5864 65.6767 66.5248 63.3616C68.4629 61.0467 69.27 58.0145 68.7393 55.0426V55.0426ZM48.1364 5.5236L51.4034 6.71256L49.5058 11.9258L46.2389 10.7365L48.1364 5.5236ZM40.949 40.3522L34.5219 38.0129L35.3698 35.6833L41.7972 38.0219L40.949 40.3522ZM44.4801 36.7221C42.6082 36.041 35.4224 33.4266 34.1493 32.9635L41.9761 11.4608C42.9332 11.8093 52.3068 15.2213 52.3068 15.2213L51.227 18.1864C50.4704 17.9322 49.6617 17.7923 48.8203 17.7923C44.6423 17.7923 41.2433 21.1914 41.2433 25.3693C41.2433 28.5686 43.2375 31.3093 46.0473 32.4185L44.4801 36.7221ZM48.8204 30.8077C45.8217 30.8077 43.3821 28.368 43.3821 25.3693C43.3821 22.3706 45.8216 19.931 48.8204 19.931C51.8193 19.931 54.2589 22.3706 54.2589 25.3693C54.2589 28.368 51.8191 30.8077 48.8204 30.8077V30.8077ZM26.6511 50.6231H49.0353V54.0727C48.9125 54.0727 30.1702 54.0732 26.6511 54.0732V50.6231Z" fill="black"/>
<path d="M48.8206 22.1307C47.0349 22.1307 45.582 23.5834 45.582 25.3692C45.582 27.155 47.0348 28.6077 48.8206 28.6077C50.6063 28.6077 52.0592 27.155 52.0592 25.3692C52.0592 23.5834 50.6063 22.1307 48.8206 22.1307ZM48.8206 26.4692C48.214 26.4692 47.7207 25.9759 47.7207 25.3693C47.7207 24.7628 48.214 24.2695 48.8206 24.2695C49.4271 24.2695 49.9206 24.7628 49.9206 25.3693C49.9206 25.9759 49.4271 26.4692 48.8206 26.4692Z" fill="black"/>
<path d="M23.4889 15.7031C25.3303 15.7031 26.8283 14.205 26.8283 12.3636C26.8283 10.5222 25.3303 9.02415 23.4889 9.02415C21.6475 9.02415 20.1494 10.5222 20.1494 12.3636C20.1494 14.205 21.6475 15.7031 23.4889 15.7031ZM23.4889 11.1628C24.151 11.1628 24.6897 11.7015 24.6897 12.3636C24.6897 13.0257 24.151 13.5644 23.4889 13.5644C22.8267 13.5644 22.2881 13.0257 22.2881 12.3636C22.2881 11.7015 22.8267 11.1628 23.4889 11.1628Z" fill="black"/>
<path d="M9.1798 13.252C7.3384 13.252 5.84033 14.7501 5.84033 16.5915C5.84033 18.4329 7.3384 19.931 9.1798 19.931C11.0212 19.931 12.5194 18.4329 12.5194 16.5915C12.5194 14.7501 11.0212 13.252 9.1798 13.252ZM9.1798 17.7923C8.51766 17.7923 7.979 17.2536 7.979 16.5915C7.979 15.9294 8.51766 15.3907 9.1798 15.3907C9.84207 15.3907 10.3807 15.9294 10.3807 16.5915C10.3807 17.2536 9.84207 17.7923 9.1798 17.7923Z" fill="black"/>
<path d="M25.6405 20.2653L24.0116 21.8942C23.5938 22.3118 23.5938 22.9887 24.0114 23.4063C24.2203 23.6152 24.4939 23.7196 24.7677 23.7196C25.0413 23.7196 25.315 23.6152 25.5238 23.4063L27.1527 21.7775C27.5705 21.3599 27.5705 20.683 27.1529 20.2653C26.7352 19.8477 26.058 19.8477 25.6405 20.2653Z" fill="black"/>
<path d="M15.0269 7.2588C14.6095 6.84105 13.9324 6.84119 13.5148 7.2588L11.8859 8.88762C11.4683 9.30523 11.4683 9.98233 11.8861 10.3998C12.0948 10.6087 12.3686 10.713 12.6422 10.713C12.9158 10.713 13.1895 10.6087 13.3984 10.3998L15.0272 8.77099C15.4447 8.35338 15.4447 7.67641 15.0269 7.2588V7.2588Z" fill="black"/>
<path d="M18.4123 16.1782L16.7835 14.5494C16.3659 14.1318 15.6888 14.1318 15.2713 14.5494C14.8536 14.967 14.8536 15.644 15.2712 16.0616L16.9 17.6904C17.1089 17.8993 17.3825 18.0036 17.6562 18.0036C17.9299 18.0036 18.2036 17.8993 18.4123 17.6904C18.83 17.2729 18.83 16.5958 18.4123 16.1782Z" fill="black"/>
<path d="M15.4391 23.0781L13.8103 24.7069C13.3926 25.1245 13.3926 25.8016 13.8104 26.2191C14.0191 26.428 14.2929 26.5323 14.5665 26.5323C14.8401 26.5323 15.1139 26.428 15.3227 26.2191L16.9515 24.5903C17.3692 24.1727 17.3692 23.4956 16.9514 23.0781C16.5338 22.6604 15.8567 22.6605 15.4391 23.0781Z" fill="black"/>
</svg>
