<svg width="546" height="281" viewBox="0 0 546 281" fill="none" xmlns="http://www.w3.org/2000/svg">
<path opacity="0.24" d="M149.046 45.6807C123.099 59.1294 94.3714 66.369 67.6805 78.2914C40.9897 90.2139 15.1999 108.541 4.15269 135.686C1.09709 143.135 -0.731052 151.339 0.274424 159.388C2.5596 177.65 18.4122 190.981 34.3953 200.047C69.2867 219.861 109.623 228.262 145.22 246.798C160.563 254.794 174.979 264.642 190.923 271.334C229.81 287.652 276.807 283.074 311.763 259.45C325.84 249.954 338.036 237.653 353.118 229.879C376.623 217.761 404.398 217.983 430.867 218.765C457.335 219.548 484.94 220.396 508.98 209.295C533.02 198.195 551.903 171.023 544.237 145.691C539.458 129.855 525.63 118.298 510.926 110.667C496.223 103.036 480.109 98.4448 465.379 90.8792C422.979 69.0691 394.735 24.2751 350.154 7.39575C314.362 -6.24858 275.057 0.964914 239.93 13.1744C225.07 18.3921 210.406 17.4529 195.533 22.1749C178.975 27.4187 164.363 37.6585 149.046 45.6807Z" fill="#8CC5F9"/>
</svg>
